<svg width="24" height="24" viewBox="0 0 24 24" fill="none" xmlns="http://www.w3.org/2000/svg">
<path fill-rule="evenodd" clip-rule="evenodd" d="M12 5C8.13401 5 5 8.13401 5 12C5 15.866 8.13401 19 12 19C15.866 19 19 15.866 19 12C19 8.13401 15.866 5 12 5ZM14.4749 13.7678L12.7071 12L14.4749 10.2322C14.6701 10.037 14.6701 9.72039 14.4749 9.52513C14.2796 9.32986 13.963 9.32986 13.7678 9.52513L12 11.2929L10.2322 9.52513C10.037 9.32986 9.72039 9.32986 9.52513 9.52513C9.32986 9.72039 9.32986 10.037 9.52513 10.2322L11.2929 12L9.52513 13.7678C9.32986 13.963 9.32986 14.2796 9.52513 14.4749C9.72039 14.6701 10.037 14.6701 10.2322 14.4749L12 12.7071L13.7678 14.4749C13.963 14.6701 14.2796 14.6701 14.4749 14.4749C14.6701 14.2796 14.6701 13.963 14.4749 13.7678Z" fill="#999999"/>
</svg>
