<svg width="86" height="77" viewBox="0 0 86 77" fill="none" xmlns="http://www.w3.org/2000/svg">
<path d="M13 29.3745C13 26.0608 15.6863 23.3745 19 23.3745H67C70.3137 23.3745 73 26.0608 73 29.3745V57.3745C73 60.6882 70.3137 63.3745 67 63.3745H19C15.6863 63.3745 13 60.6882 13 57.3745L13 29.3745Z" fill="#39A7FF"/>
<g filter="url(#filter0_f_83_1258)">
<ellipse cx="42.9418" cy="63.3746" rx="38.0273" ry="5.22816" fill="#40BAFF" fill-opacity="0.5"/>
</g>
<g filter="url(#filter1_b_83_1258)">
<path d="M20 6.5C20 3.18629 22.6863 0.5 26 0.5H60C63.3137 0.5 66 3.18629 66 6.5V50.5C66 53.8137 63.3137 56.5 60 56.5H26C22.6863 56.5 20 53.8137 20 50.5V6.5Z" fill="#A8E0FF" fill-opacity="0.5"/>
</g>
<path fill-rule="evenodd" clip-rule="evenodd" d="M39.2441 10.9458C39.2441 9.84122 40.1396 8.94579 41.2441 8.94579H45.3641C46.4687 8.94579 47.3641 9.84122 47.3641 10.9458V15.0658C47.3641 16.1704 46.4687 17.0658 45.3641 17.0658H41.2441C40.1396 17.0658 39.2441 16.1704 39.2441 15.0658V10.9458ZM28.0059 10.9458C28.0059 9.84123 28.9013 8.9458 30.0059 8.9458H34.1259C35.2304 8.9458 36.1259 9.84123 36.1259 10.9458V15.0658C36.1259 16.1704 35.2304 17.0658 34.1259 17.0658H30.0059C28.9013 17.0658 28.0059 16.1704 28.0059 15.0658V10.9458ZM52.4819 8.9458C51.3774 8.9458 50.4819 9.84123 50.4819 10.9458V15.0658C50.4819 16.1704 51.3774 17.0658 52.4819 17.0658H56.6019C57.7065 17.0658 58.6019 16.1704 58.6019 15.0658V10.9458C58.6019 9.84123 57.7065 8.9458 56.6019 8.9458H52.4819ZM28.0059 21.7183C28.0059 20.6138 28.9013 19.7183 30.0059 19.7183H34.1259C35.2304 19.7183 36.1259 20.6138 36.1259 21.7183V25.8383C36.1259 26.9429 35.2304 27.8383 34.1259 27.8383H30.0059C28.9013 27.8383 28.0059 26.9429 28.0059 25.8383V21.7183ZM41.2441 19.7183C40.1396 19.7183 39.2441 20.6138 39.2441 21.7183V25.8383C39.2441 26.9429 40.1396 27.8383 41.2441 27.8383H45.3641C46.4687 27.8383 47.3641 26.9429 47.3641 25.8383V21.7183C47.3641 20.6138 46.4687 19.7183 45.3641 19.7183H41.2441ZM50.4819 21.7184C50.4819 20.6138 51.3774 19.7184 52.4819 19.7184H56.6019C57.7065 19.7184 58.6019 20.6138 58.6019 21.7184V25.8384C58.6019 26.943 57.7065 27.8384 56.6019 27.8384H52.4819C51.3774 27.8384 50.4819 26.943 50.4819 25.8384V21.7184ZM30.0059 30.4908C28.9013 30.4908 28.0059 31.3863 28.0059 32.4908V36.6108C28.0059 37.7154 28.9013 38.6108 30.0059 38.6108H34.1259C35.2304 38.6108 36.1259 37.7154 36.1259 36.6108V32.4908C36.1259 31.3862 35.2304 30.4908 34.1259 30.4908H30.0059ZM39.2441 32.4908C39.2441 31.3863 40.1396 30.4908 41.2441 30.4908H45.3641C46.4687 30.4908 47.3641 31.3862 47.3641 32.4908V36.6108C47.3641 37.7154 46.4687 38.6108 45.3641 38.6108H41.2441C40.1396 38.6108 39.2441 37.7154 39.2441 36.6108V32.4908ZM30.0059 41.263C28.9013 41.263 28.0059 42.1585 28.0059 43.263V47.383C28.0059 48.4876 28.9013 49.383 30.0059 49.383H34.1259C35.2304 49.383 36.1259 48.4876 36.1259 47.383V43.263C36.1259 42.1585 35.2304 41.263 34.1259 41.263H30.0059Z" fill="white" fill-opacity="0.7"/>
<path fill-rule="evenodd" clip-rule="evenodd" d="M57.0912 48.3392L65.8627 39.5677C66.6243 38.8061 67.859 38.8061 68.6206 39.5677C69.3821 40.3293 69.3821 41.564 68.6206 42.3256L58.4997 52.4465C58.0536 52.8925 57.4452 53.0773 56.8646 53.0008C56.4304 52.9587 56.0076 52.7714 55.675 52.4388L50.7544 47.5182C49.9928 46.7566 49.9928 45.5218 50.7544 44.7603C51.5159 43.9987 52.7507 43.9987 53.5122 44.7603L57.0912 48.3392Z" fill="white" fill-opacity="0.7"/>
<defs>
<filter id="filter0_f_83_1258" x="-10.0854" y="43.1464" width="106.055" height="40.4563" filterUnits="userSpaceOnUse" color-interpolation-filters="sRGB">
<feFlood flood-opacity="0" result="BackgroundImageFix"/>
<feBlend mode="normal" in="SourceGraphic" in2="BackgroundImageFix" result="shape"/>
<feGaussianBlur stdDeviation="7.5" result="effect1_foregroundBlur_83_1258"/>
</filter>
<filter id="filter1_b_83_1258" x="17" y="-2.5" width="52" height="62" filterUnits="userSpaceOnUse" color-interpolation-filters="sRGB">
<feFlood flood-opacity="0" result="BackgroundImageFix"/>
<feGaussianBlur in="BackgroundImage" stdDeviation="1.5"/>
<feComposite in2="SourceAlpha" operator="in" result="effect1_backgroundBlur_83_1258"/>
<feBlend mode="normal" in="SourceGraphic" in2="effect1_backgroundBlur_83_1258" result="shape"/>
</filter>
</defs>
</svg>
