<svg width="86" height="86" viewBox="0 0 86 86" fill="none" xmlns="http://www.w3.org/2000/svg">
<g clip-path="url(#clip0_664_3890)">
<mask id="mask0_664_3890" style="mask-type:alpha" maskUnits="userSpaceOnUse" x="0" y="0" width="86" height="86">
<path d="M0 8C0 3.58172 3.58172 0 8 0H78C82.4183 0 86 3.58172 86 8V78C86 82.4183 82.4183 86 78 86H8C3.58172 86 0 82.4183 0 78V8Z" fill="white"/>
</mask>
<g mask="url(#mask0_664_3890)">
<path d="M13 38.3745C13 35.0608 15.6863 32.3745 19 32.3745H67C70.3137 32.3745 73 35.0608 73 38.3745V66.3745C73 69.6882 70.3137 72.3745 67 72.3745H19C15.6863 72.3745 13 69.6882 13 66.3745L13 38.3745Z" fill="#39A7FF"/>
<g filter="url(#filter0_f_664_3890)">
<ellipse cx="42.9418" cy="72.3746" rx="38.0273" ry="5.22816" fill="#40BAFF" fill-opacity="0.5"/>
</g>
<g filter="url(#filter1_b_664_3890)">
<path d="M20 15.5C20 12.1863 22.6863 9.5 26 9.5H60C63.3137 9.5 66 12.1863 66 15.5V59.5C66 62.8137 63.3137 65.5 60 65.5H26C22.6863 65.5 20 62.8137 20 59.5V15.5Z" fill="#A8E0FF" fill-opacity="0.5"/>
</g>
<path fill-rule="evenodd" clip-rule="evenodd" d="M39.2441 19.9458C39.2441 18.8412 40.1396 17.9458 41.2441 17.9458H45.3641C46.4687 17.9458 47.3641 18.8412 47.3641 19.9458V24.0658C47.3641 25.1704 46.4687 26.0658 45.3641 26.0658H41.2441C40.1396 26.0658 39.2441 25.1704 39.2441 24.0658V19.9458ZM28.0059 19.9458C28.0059 18.8412 28.9013 17.9458 30.0059 17.9458H34.1259C35.2304 17.9458 36.1259 18.8412 36.1259 19.9458V24.0658C36.1259 25.1704 35.2304 26.0658 34.1259 26.0658H30.0059C28.9013 26.0658 28.0059 25.1704 28.0059 24.0658V19.9458ZM52.4819 17.9458C51.3774 17.9458 50.4819 18.8412 50.4819 19.9458V24.0658C50.4819 25.1704 51.3774 26.0658 52.4819 26.0658H56.6019C57.7065 26.0658 58.6019 25.1704 58.6019 24.0658V19.9458C58.6019 18.8412 57.7065 17.9458 56.6019 17.9458H52.4819ZM28.0059 30.7184C28.0059 29.6138 28.9013 28.7183 30.0059 28.7183H34.1259C35.2304 28.7183 36.1259 29.6138 36.1259 30.7183V34.8383C36.1259 35.9429 35.2304 36.8384 34.1259 36.8384H30.0059C28.9013 36.8384 28.0059 35.9429 28.0059 34.8384V30.7184ZM41.2441 28.7183C40.1396 28.7183 39.2441 29.6138 39.2441 30.7184V34.8384C39.2441 35.9429 40.1396 36.8384 41.2441 36.8384H45.3641C46.4687 36.8384 47.3641 35.9429 47.3641 34.8383V30.7183C47.3641 29.6138 46.4687 28.7183 45.3641 28.7183H41.2441ZM50.4819 30.7184C50.4819 29.6138 51.3774 28.7184 52.4819 28.7184H56.6019C57.7065 28.7184 58.6019 29.6138 58.6019 30.7184V34.8384C58.6019 35.943 57.7065 36.8384 56.6019 36.8384H52.4819C51.3774 36.8384 50.4819 35.943 50.4819 34.8384V30.7184ZM30.0059 39.4908C28.9013 39.4908 28.0059 40.3863 28.0059 41.4908V45.6108C28.0059 46.7154 28.9013 47.6108 30.0059 47.6108H34.1259C35.2304 47.6108 36.1259 46.7154 36.1259 45.6108V41.4908C36.1259 40.3863 35.2304 39.4908 34.1259 39.4908H30.0059ZM39.2441 41.4908C39.2441 40.3863 40.1396 39.4908 41.2441 39.4908H45.3641C46.4687 39.4908 47.3641 40.3863 47.3641 41.4908V45.6108C47.3641 46.7154 46.4687 47.6108 45.3641 47.6108H41.2441C40.1396 47.6108 39.2441 46.7154 39.2441 45.6108V41.4908ZM30.0059 50.263C28.9013 50.263 28.0059 51.1585 28.0059 52.263V56.383C28.0059 57.4876 28.9013 58.383 30.0059 58.383H34.1259C35.2304 58.383 36.1259 57.4876 36.1259 56.383V52.263C36.1259 51.1585 35.2304 50.263 34.1259 50.263H30.0059Z" fill="white" fill-opacity="0.7"/>
<path fill-rule="evenodd" clip-rule="evenodd" d="M57.0911 57.3392L65.8626 48.5676C66.6242 47.8061 67.8589 47.8061 68.6205 48.5676C69.3821 49.3292 69.3821 50.564 68.6205 51.3255L58.4996 61.4464C58.0535 61.8925 57.4451 62.0773 56.8645 62.0008C56.4303 61.9587 56.0075 61.7713 55.675 61.4388L50.7543 56.5181C49.9927 55.7565 49.9927 54.5218 50.7543 53.7602C51.5159 52.9987 52.7506 52.9987 53.5122 53.7602L57.0911 57.3392Z" fill="white" fill-opacity="0.7"/>
</g>
</g>
<defs>
<filter id="filter0_f_664_3890" x="-10.0854" y="52.1464" width="106.055" height="40.4563" filterUnits="userSpaceOnUse" color-interpolation-filters="sRGB">
<feFlood flood-opacity="0" result="BackgroundImageFix"/>
<feBlend mode="normal" in="SourceGraphic" in2="BackgroundImageFix" result="shape"/>
<feGaussianBlur stdDeviation="7.5" result="effect1_foregroundBlur_664_3890"/>
</filter>
<filter id="filter1_b_664_3890" x="17" y="6.5" width="52" height="62" filterUnits="userSpaceOnUse" color-interpolation-filters="sRGB">
<feFlood flood-opacity="0" result="BackgroundImageFix"/>
<feGaussianBlur in="BackgroundImage" stdDeviation="1.5"/>
<feComposite in2="SourceAlpha" operator="in" result="effect1_backgroundBlur_664_3890"/>
<feBlend mode="normal" in="SourceGraphic" in2="effect1_backgroundBlur_664_3890" result="shape"/>
</filter>
<clipPath id="clip0_664_3890">
<rect width="86" height="86" fill="white"/>
</clipPath>
</defs>
</svg>
