<svg width="70" height="70" viewBox="0 0 70 70" fill="none" xmlns="http://www.w3.org/2000/svg">
<g clip-path="url(#clip0_664_3892)">
<g filter="url(#filter0_f_664_3892)">
<ellipse cx="35.7415" cy="57.0123" rx="30.9524" ry="3.81955" fill="#FF955A" fill-opacity="0.7"/>
</g>
<path fill-rule="evenodd" clip-rule="evenodd" d="M12 26C10.8954 26 10 26.8954 10 28V34.3586V34.8445V54.047C10 56.7825 12.2175 59 14.953 59H54.5773C57.3128 59 59.5303 56.7825 59.5303 54.047V34.7076C59.5303 33.603 58.6349 32.7076 57.5303 32.7076H37.9108L33.6429 26.6953C33.3333 26.2592 32.8315 26 32.2966 26H12Z" fill="url(#paint0_linear_664_3892)"/>
<g filter="url(#filter1_b_664_3892)">
<rect x="15.8719" y="7.73257" width="37.4419" height="45.5814" rx="4.88372" fill="#FFD9C3" fill-opacity="0.5"/>
</g>
<path fill-rule="evenodd" clip-rule="evenodd" d="M38.6036 37.6807C40.024 36.2603 42.3269 36.2603 43.7473 37.6807L44.0383 37.9717L44.3293 37.6807C45.7497 36.2603 48.0526 36.2603 49.473 37.6807C50.8934 39.1011 50.8934 41.4041 49.473 42.8245L44.8335 47.464C44.6141 47.6834 44.326 47.7925 44.0383 47.7912C43.7507 47.7925 43.4626 47.6834 43.2431 47.464L38.6036 42.8245C37.1832 41.4041 37.1832 39.1011 38.6036 37.6807Z" fill="white" fill-opacity="0.7"/>
<path fill-rule="evenodd" clip-rule="evenodd" d="M21.5383 32.9449C21.5383 33.8419 22.2655 34.5691 23.1626 34.5691H31.5781C32.4752 34.5691 33.2023 33.8419 33.2023 32.9449C33.2023 32.0479 32.4752 31.3207 31.5781 31.3207H23.1626C22.2655 31.3207 21.5383 32.0479 21.5383 32.9449ZM21.5383 26.8615C21.5383 27.7585 22.2655 28.4857 23.1626 28.4857H45.7603C46.6573 28.4857 47.3845 27.7585 47.3845 26.8615C47.3845 25.9644 46.6573 25.2373 45.7603 25.2373H23.1626C22.2655 25.2373 21.5383 25.9644 21.5383 26.8615ZM23.1626 22.4023C22.2655 22.4023 21.5383 21.6751 21.5383 20.7781C21.5383 19.8811 22.2655 19.1539 23.1626 19.1539H45.7603C46.6573 19.1539 47.3845 19.8811 47.3845 20.7781C47.3845 21.6751 46.6573 22.4023 45.7603 22.4023H23.1626Z" fill="white" fill-opacity="0.8"/>
</g>
<defs>
<filter id="filter0_f_664_3892" x="-7.42024" y="40.9834" width="86.3235" height="32.0577" filterUnits="userSpaceOnUse" color-interpolation-filters="sRGB">
<feFlood flood-opacity="0" result="BackgroundImageFix"/>
<feBlend mode="normal" in="SourceGraphic" in2="BackgroundImageFix" result="shape"/>
<feGaussianBlur stdDeviation="6.10465" result="effect1_foregroundBlur_664_3892"/>
</filter>
<filter id="filter1_b_664_3892" x="7.73241" y="-0.406961" width="53.721" height="61.8605" filterUnits="userSpaceOnUse" color-interpolation-filters="sRGB">
<feFlood flood-opacity="0" result="BackgroundImageFix"/>
<feGaussianBlur in="BackgroundImage" stdDeviation="4.06977"/>
<feComposite in2="SourceAlpha" operator="in" result="effect1_backgroundBlur_664_3892"/>
<feBlend mode="normal" in="SourceGraphic" in2="effect1_backgroundBlur_664_3892" result="shape"/>
</filter>
<linearGradient id="paint0_linear_664_3892" x1="34.7652" y1="26" x2="34.7652" y2="59" gradientUnits="userSpaceOnUse">
<stop stop-color="#FFAB7D"/>
<stop offset="1" stop-color="#FF7224"/>
</linearGradient>
<clipPath id="clip0_664_3892">
<rect width="70" height="70" fill="white"/>
</clipPath>
</defs>
</svg>
