<svg width="40" height="40" viewBox="0 0 40 40" fill="none" xmlns="http://www.w3.org/2000/svg">
<path d="M33.3333 30C33.7754 30 34.1993 30.1756 34.5118 30.4881C34.8244 30.8007 35 31.2246 35 31.6667V35C35 35.442 34.8244 35.8659 34.5118 36.1785C34.1993 36.4911 33.7754 36.6667 33.3333 36.6667H6.66667C6.22464 36.6667 5.80072 36.4911 5.48816 36.1785C5.17559 35.8659 5 35.442 5 35V31.6667C5 31.2246 5.17559 30.8007 5.48816 30.4881C5.80072 30.1756 6.22464 30 6.66667 30C7.10869 30 7.53262 30.1756 7.84518 30.4881C8.15774 30.8007 8.33333 31.2246 8.33333 31.6667V33.3333H31.6667V31.6667C31.6667 31.2246 31.8423 30.8007 32.1548 30.4881C32.4674 30.1756 32.8913 30 33.3333 30ZM21.6667 23.3933L26.095 18.965C26.4093 18.6614 26.8303 18.4934 27.2673 18.4972C27.7043 18.501 28.1224 18.6763 28.4314 18.9853C28.7404 19.2943 28.9157 19.7123 28.9195 20.1493C28.9233 20.5863 28.7553 21.0073 28.4517 21.3217C26.095 23.68 23.7383 26.0383 21.3783 28.395C21.0659 28.7064 20.6428 28.8813 20.2017 28.8813C19.7605 28.8813 19.3374 28.7064 19.025 28.395C16.6633 26.0367 14.3033 23.6733 11.9433 21.3117C11.6375 20.9987 11.4681 20.5773 11.4722 20.1397C11.4762 19.7021 11.6534 19.2839 11.965 18.9767C12.2721 18.6647 12.6903 18.4872 13.128 18.4831C13.5657 18.4791 13.9872 18.6488 14.3 18.955L18.3333 22.9883V5.83332C18.3333 5.3913 18.5089 4.96737 18.8215 4.65481C19.134 4.34225 19.558 4.16666 20 4.16666C20.442 4.16666 20.8659 4.34225 21.1785 4.65481C21.4911 4.96737 21.6667 5.3913 21.6667 5.83332V23.3933Z" fill="black" fill-opacity="0.6"/>
</svg>
