<svg width="24" height="24" viewBox="0 0 24 24" fill="none" xmlns="http://www.w3.org/2000/svg">
<path fill-rule="evenodd" clip-rule="evenodd" d="M7.36476 2.75189C4.80395 2.82348 2.75 4.92188 2.75 7.5L2.75 16.5L2.75189 16.6352C2.82348 19.1961 4.92188 21.25 7.5 21.25H16.5L16.6352 21.2481C19.1961 21.1765 21.25 19.0781 21.25 16.5V11.4583L21.2466 11.3861C21.2102 11.0058 20.8898 10.7083 20.5 10.7083C20.0858 10.7083 19.75 11.0441 19.75 11.4583V16.5L19.7479 16.6166C19.6866 18.3575 18.2559 19.75 16.5 19.75H7.5L7.38343 19.7479C5.6425 19.6866 4.25 18.2559 4.25 16.5L4.25 7.5L4.25205 7.38343C4.31342 5.6425 5.74409 4.25 7.5 4.25H12.5417L12.6139 4.24657C12.9942 4.21022 13.2917 3.88985 13.2917 3.5C13.2917 3.08579 12.9559 2.75 12.5417 2.75H7.5L7.36476 2.75189ZM10.0849 12.86C9.84459 13.1545 9.86175 13.5891 10.1363 13.8637C10.4292 14.1566 10.9041 14.1566 11.197 13.8637L20.0156 5.04505L20.0671 4.98809C20.3074 4.69351 20.2902 4.25898 20.0156 3.98439C19.7227 3.6915 19.2478 3.6915 18.955 3.98439L10.1363 12.803L10.0849 12.86Z" fill="#1F1F1F"/>
</svg>
