<svg width="24" height="24" viewBox="0 0 24 24" fill="none" xmlns="http://www.w3.org/2000/svg">
<circle opacity="0.3" cx="12" cy="12" r="11.5" stroke="#F2994A"/>
<circle cx="12" cy="12" r="8.5" fill="#F2994A" stroke="#F2994A"/>
<path d="M17.6476 9.01933C17.7344 9.10611 17.7778 9.21984 17.7778 9.33358C17.7778 9.44733 17.7344 9.56108 17.6476 9.64787L11.7587 15.5368C11.6719 15.6235 11.5582 15.6669 11.4445 15.6669C11.3307 15.6669 11.217 15.6235 11.1302 15.5368L7.68575 12.0923C7.59939 12.006 7.556 11.8929 7.55558 11.7797C7.55514 11.6654 7.59853 11.551 7.68575 11.4638C7.85931 11.2902 8.14072 11.2902 8.31429 11.4638L11.4445 14.594L17.0191 9.01933C17.1059 8.93256 17.2196 8.88917 17.3333 8.88916C17.4471 8.88915 17.5608 8.93254 17.6476 9.01933Z" fill="#1F1F1F" stroke="white" stroke-linecap="round" stroke-linejoin="round"/>
</svg>
