<svg width="24" height="24" viewBox="0 0 24 24" fill="none" xmlns="http://www.w3.org/2000/svg">
<path fill-rule="evenodd" clip-rule="evenodd" d="M11.5 2.25C6.66751 2.25 2.75 6.16751 2.75 11C2.75 15.8325 6.66751 19.75 11.5 19.75C13.6462 19.75 15.6119 18.9773 17.1342 17.6949L19.8838 20.4445L19.9408 20.496C20.2353 20.7363 20.6699 20.7191 20.9445 20.4445C21.2373 20.1516 21.2373 19.6768 20.9445 19.3839L18.1948 16.6343C19.4773 15.112 20.25 13.1463 20.25 11C20.25 6.16751 16.3325 2.25 11.5 2.25ZM11.5 3.75C15.5041 3.75 18.75 6.99594 18.75 11C18.75 15.0041 15.5041 18.25 11.5 18.25C7.49594 18.25 4.25 15.0041 4.25 11C4.25 6.99594 7.49594 3.75 11.5 3.75Z" fill="#BBBBBB"/>
</svg>
