<svg width="24" height="24" viewBox="0 0 24 24" fill="none" xmlns="http://www.w3.org/2000/svg">
<path d="M5.0673 6C5.36393 6 5.65391 5.91205 5.90057 5.74726L12.889 1.07843C14.2179 0.190558 16 1.14316 16 2.74144V19.2586C16 20.8568 14.2179 21.8094 12.889 20.9216L5.90057 16.2527C5.65391 16.088 5.36393 16 5.0673 16H2.5C1.67157 16 1 15.3284 1 14.5V7.5C1 6.67157 1.67157 6 2.5 6H5.0673Z" fill="#FF9133"/>
<path d="M5 14.9445C4.44772 14.9445 4 14.4967 4 13.9445L4 7.99996C4 7.44768 4.44771 6.99996 5 6.99996C5.55228 6.99996 6 7.44768 6 7.99996L6 13.9445C6 14.4967 5.55228 14.9445 5 14.9445Z" fill="white" fill-opacity="0.9"/>
<path d="M18 9C18 9 19 9.69036 19 11.5C19 13.3096 18 14 18 14" stroke="#FF9133" stroke-width="2" stroke-linecap="round"/>
<path d="M21 6C21 6 23 7.38071 23 11C23 14.6193 21 16 21 16" stroke="#FF9133" stroke-width="2" stroke-linecap="round"/>
</svg>
