<svg width="86" height="86" viewBox="0 0 86 86" fill="none" xmlns="http://www.w3.org/2000/svg">
<g clip-path="url(#clip0_664_3889)">
<g filter="url(#filter0_f_664_3889)">
<ellipse cx="42.9413" cy="66.5348" rx="38.0273" ry="5.22816" fill="#5A75FF" fill-opacity="0.5"/>
</g>
<path fill-rule="evenodd" clip-rule="evenodd" d="M15 31.6383C13.8954 31.6383 13 32.5338 13 33.6383V41.7637V42.3523V65.6138C13 68.9275 15.6863 71.6138 19 71.6138H67C70.3137 71.6138 73 68.9275 73 65.6138V41.7637C73 40.6592 72.1046 39.7637 71 39.7637H46.8105L41.6405 32.4806C41.2654 31.9522 40.6576 31.6383 40.0097 31.6383H15Z" fill="#6E82FD"/>
<g filter="url(#filter1_b_664_3889)">
<path d="M20 14.7637C20 11.45 22.6863 8.76373 26 8.76373H60C63.3137 8.76373 66 11.45 66 14.7637V58.7637C66 62.0774 63.3137 64.7637 60 64.7637H26C22.6863 64.7637 20 62.0774 20 58.7637V14.7637Z" fill="#EAC9FF" fill-opacity="0.4"/>
</g>
<path fill-rule="evenodd" clip-rule="evenodd" d="M57.1949 49.7382C57.1949 48.9098 56.5233 48.2382 55.6949 48.2382C54.8665 48.2382 54.1949 48.9098 54.1949 49.7382V52.863H50.9902C50.1618 52.863 49.4902 53.5346 49.4902 54.363C49.4902 55.1914 50.1618 55.863 50.9902 55.863H54.1949V59.0677C54.1949 59.8961 54.8665 60.5677 55.6949 60.5677C56.5233 60.5677 57.1949 59.8961 57.1949 59.0677V55.863H60.3197C61.1481 55.863 61.8197 55.1914 61.8197 54.363C61.8197 53.5346 61.1481 52.863 60.3197 52.863H57.1949V49.7382Z" fill="#F4EAFF"/>
<path fill-rule="evenodd" clip-rule="evenodd" d="M25.0137 22.4926C25.0137 21.388 25.9091 20.4926 27.0137 20.4926H37.3763C38.4808 20.4926 39.3763 21.388 39.3763 22.4926C39.3763 23.5972 38.4808 24.4926 37.3763 24.4926H27.0137C25.9091 24.4926 25.0137 23.5972 25.0137 22.4926ZM25.0137 29.9835C25.0137 28.8789 25.9091 27.9835 27.0137 27.9835H54.8396C55.9441 27.9835 56.8396 28.8789 56.8396 29.9835C56.8396 31.088 55.9441 31.9835 54.8396 31.9835H27.0137C25.9091 31.9835 25.0137 31.088 25.0137 29.9835ZM27.0137 35.4743C25.9091 35.4743 25.0137 36.3697 25.0137 37.4743C25.0137 38.5789 25.9091 39.4743 27.0137 39.4743H54.8396C55.9441 39.4743 56.8396 38.5789 56.8396 37.4743C56.8396 36.3697 55.9441 35.4743 54.8396 35.4743H27.0137Z" fill="white" fill-opacity="0.8"/>
</g>
<defs>
<filter id="filter0_f_664_3889" x="-10.0859" y="46.3066" width="106.055" height="40.4563" filterUnits="userSpaceOnUse" color-interpolation-filters="sRGB">
<feFlood flood-opacity="0" result="BackgroundImageFix"/>
<feBlend mode="normal" in="SourceGraphic" in2="BackgroundImageFix" result="shape"/>
<feGaussianBlur stdDeviation="7.5" result="effect1_foregroundBlur_664_3889"/>
</filter>
<filter id="filter1_b_664_3889" x="17" y="5.76373" width="52" height="62" filterUnits="userSpaceOnUse" color-interpolation-filters="sRGB">
<feFlood flood-opacity="0" result="BackgroundImageFix"/>
<feGaussianBlur in="BackgroundImage" stdDeviation="1.5"/>
<feComposite in2="SourceAlpha" operator="in" result="effect1_backgroundBlur_664_3889"/>
<feBlend mode="normal" in="SourceGraphic" in2="effect1_backgroundBlur_664_3889" result="shape"/>
</filter>
<clipPath id="clip0_664_3889">
<rect width="86" height="86" fill="white"/>
</clipPath>
</defs>
</svg>
