<svg width="107" height="87" viewBox="0 0 107 87" fill="none" xmlns="http://www.w3.org/2000/svg">
<rect x="11" width="86" height="86" fill="white"/>
<g filter="url(#filter0_f_150_2127)">
<ellipse cx="53.9413" cy="66.5348" rx="38.0273" ry="5.22816" fill="#5A75FF" fill-opacity="0.5"/>
</g>
<path fill-rule="evenodd" clip-rule="evenodd" d="M26 31.6383C24.8954 31.6383 24 32.5337 24 33.6383V41.7637V42.3523V65.6138C24 68.9275 26.6863 71.6138 30 71.6138H78C81.3137 71.6138 84 68.9275 84 65.6138V41.7637C84 40.6592 83.1046 39.7637 82 39.7637H57.8105L52.6405 32.4806C52.2654 31.9522 51.6576 31.6383 51.0097 31.6383H26Z" fill="#6E82FD"/>
<g filter="url(#filter1_b_150_2127)">
<path d="M31 14.7637C31 11.45 33.6863 8.76373 37 8.76373H71C74.3137 8.76373 77 11.45 77 14.7637V58.7637C77 62.0774 74.3137 64.7637 71 64.7637H37C33.6863 64.7637 31 62.0774 31 58.7637V14.7637Z" fill="#EAC9FF" fill-opacity="0.4"/>
</g>
<path fill-rule="evenodd" clip-rule="evenodd" d="M68.1949 49.7382C68.1949 48.9098 67.5233 48.2382 66.6949 48.2382C65.8665 48.2382 65.1949 48.9098 65.1949 49.7382V52.863H61.9903C61.1618 52.863 60.4903 53.5346 60.4903 54.363C60.4903 55.1915 61.1618 55.863 61.9903 55.863H65.1949V59.0677C65.1949 59.8961 65.8665 60.5677 66.6949 60.5677C67.5233 60.5677 68.1949 59.8961 68.1949 59.0677V55.863H71.3197C72.1481 55.863 72.8197 55.1915 72.8197 54.363C72.8197 53.5346 72.1481 52.863 71.3197 52.863H68.1949V49.7382Z" fill="#F4EAFF"/>
<path fill-rule="evenodd" clip-rule="evenodd" d="M36.0137 22.4926C36.0137 21.388 36.9091 20.4926 38.0137 20.4926H48.3763C49.4808 20.4926 50.3763 21.388 50.3763 22.4926C50.3763 23.5972 49.4808 24.4926 48.3763 24.4926H38.0137C36.9091 24.4926 36.0137 23.5972 36.0137 22.4926ZM36.0137 29.9835C36.0137 28.8789 36.9091 27.9835 38.0137 27.9835H65.8396C66.9441 27.9835 67.8396 28.8789 67.8396 29.9835C67.8396 31.088 66.9441 31.9835 65.8396 31.9835H38.0137C36.9091 31.9835 36.0137 31.088 36.0137 29.9835ZM38.0137 35.4743C36.9091 35.4743 36.0137 36.3697 36.0137 37.4743C36.0137 38.5789 36.9091 39.4743 38.0137 39.4743H65.8396C66.9441 39.4743 67.8396 38.5789 67.8396 37.4743C67.8396 36.3697 66.9441 35.4743 65.8396 35.4743H38.0137Z" fill="white" fill-opacity="0.8"/>
<defs>
<filter id="filter0_f_150_2127" x="0.914062" y="46.3066" width="106.055" height="40.4563" filterUnits="userSpaceOnUse" color-interpolation-filters="sRGB">
<feFlood flood-opacity="0" result="BackgroundImageFix"/>
<feBlend mode="normal" in="SourceGraphic" in2="BackgroundImageFix" result="shape"/>
<feGaussianBlur stdDeviation="7.5" result="effect1_foregroundBlur_150_2127"/>
</filter>
<filter id="filter1_b_150_2127" x="28" y="5.76373" width="52" height="62" filterUnits="userSpaceOnUse" color-interpolation-filters="sRGB">
<feFlood flood-opacity="0" result="BackgroundImageFix"/>
<feGaussianBlur in="BackgroundImage" stdDeviation="1.5"/>
<feComposite in2="SourceAlpha" operator="in" result="effect1_backgroundBlur_150_2127"/>
<feBlend mode="normal" in="SourceGraphic" in2="effect1_backgroundBlur_150_2127" result="shape"/>
</filter>
</defs>
</svg>
